<svg width="30" height="30" viewBox="0 0 30 30" fill="none" xmlns="http://www.w3.org/2000/svg">
<g clip-path="url(#clip0_4_642)">
<path d="M10.5892 29.9606C10.8823 30.1164 11.1914 29.7791 11.012 29.4998C10.0382 27.9842 9.11599 25.4338 10.5852 22.1492C13.0353 16.6719 14.5262 13.8351 14.5262 13.8351C14.5262 13.8351 15.3192 17.1456 17.4688 20.0892C19.5377 22.9222 20.6701 26.4852 18.8445 29.4534C18.6732 29.732 18.9753 30.0607 19.2664 29.9117C21.5262 28.7557 24.0608 26.4369 24.3468 21.8226C24.4522 20.4126 24.2941 18.4386 23.5034 15.9476C22.4867 12.7904 21.2367 11.3172 20.5136 10.6846C20.2972 10.4953 19.9608 10.663 19.9786 10.9499C20.1893 14.3565 18.9077 15.2209 18.1783 13.2727C17.8869 12.4946 17.717 11.1487 17.717 9.5097C17.717 6.78102 16.9254 3.9721 15.18 1.68954C14.7261 1.09596 14.1951 0.541307 13.5858 0.0683159C13.3652 -0.102959 13.0454 0.0691983 13.0656 0.347728C13.1996 2.19754 13.0782 7.49897 8.42717 13.8325C4.21005 19.7076 5.84418 24.2196 6.42403 25.4416C7.53266 27.7828 9.07903 29.1576 10.5892 29.9606Z" fill="#F39F20"/>
</g>
<defs>
<clipPath id="clip0_4_642">
<rect width="30" height="30" fill="white"/>
</clipPath>
</defs>
</svg>
