<svg width="70" height="70" viewBox="0 0 70 70" fill="none" xmlns="http://www.w3.org/2000/svg">
<path d="M56.4246 45.7173H24.9331C23.7544 45.7173 22.7144 44.9476 22.3698 43.8203L12.1772 10.4976H3.21756C1.73719 10.4976 0.537109 9.29755 0.537109 7.81717C0.537109 6.3368 1.73719 5.13672 3.21756 5.13672H14.1607C15.3393 5.13672 16.3794 5.90639 16.724 7.03295L26.9166 40.3563H54.6432L62.7497 21.064H35.0001C33.5197 21.064 32.3196 19.8639 32.3196 18.3835C32.3196 16.9031 33.5197 15.7031 35.0001 15.7031H66.7826C67.6802 15.7031 68.5188 16.1526 69.015 16.9001C69.5113 17.6475 69.6017 18.5941 69.254 19.422L58.8952 44.0753C58.477 45.0701 57.5036 45.7173 56.4246 45.7173Z" fill="white"/>
<path d="M22.6546 62.1798C25.2601 62.1798 27.3722 60.0677 27.3722 57.4622C27.3722 54.8568 25.2601 52.7446 22.6546 52.7446C20.0492 52.7446 17.937 54.8568 17.937 57.4622C17.937 60.0677 20.0492 62.1798 22.6546 62.1798Z" fill="white"/>
<path d="M57.6614 62.1798C60.2669 62.1798 62.379 60.0677 62.379 57.4622C62.379 54.8568 60.2669 52.7446 57.6614 52.7446C55.056 52.7446 52.9438 54.8568 52.9438 57.4622C52.9438 60.0677 55.056 62.1798 57.6614 62.1798Z" fill="white"/>
</svg>
