<svg width="64" height="96" viewBox="0 0 64 96" fill="none" xmlns="http://www.w3.org/2000/svg">
<path d="M48 0C48.8912 0 49.7458 0.353999 50.3759 0.984121C51.006 1.61424 51.36 2.46887 51.36 3.36V89.28H60.5472C61.4384 89.28 62.293 89.634 62.9231 90.2641C63.5532 90.8942 63.9072 91.7489 63.9072 92.64C63.9072 93.5311 63.5532 94.3858 62.9231 95.0159C62.293 95.646 61.4384 96 60.5472 96H36.5472C35.6561 96 34.8015 95.646 34.1713 95.0159C33.5412 94.3858 33.1872 93.5311 33.1872 92.64C33.1872 91.7489 33.5412 90.8942 34.1713 90.2641C34.8015 89.634 35.6561 89.28 36.5472 89.28H44.64V45.12H3.36003C2.4689 45.12 1.61427 44.766 0.984147 44.1359C0.354025 43.5058 2.82839e-05 42.6511 2.82839e-05 41.76V3.36C2.82839e-05 2.46887 0.354025 1.61424 0.984147 0.984121C1.61427 0.353999 2.4689 0 3.36003 0H47.52C47.6014 0.000246383 47.6827 0.00344849 47.7639 0.0096C47.8425 0.0036314 47.9212 0.000429422 48 0V0ZM34.752 6.72H25.344V13.8528H15.936V6.72H6.72003V13.8528H15.936V23.2598H6.72003V32.6678H15.936V38.4H25.344V32.6688H34.752V38.4H44.16V32.6688H34.752V23.2598H44.16V13.8518H34.752V6.72ZM34.752 13.8528V23.2598H25.344V13.8518H34.752V13.8528ZM25.344 23.2598V32.6678H15.936V23.2598H25.344V23.2598Z" fill="black"/>
</svg>
