<svg width="553" height="166" viewBox="0 0 553 166" fill="none" xmlns="http://www.w3.org/2000/svg">
<g clip-path="url(#clip0_1_2)">
<path d="M10.9673 65.3475C272.658 -71.6265 399.398 49.5976 399.398 49.5976C525.101 47.888 553 79.4872 553 79.4872C553 79.4872 526.501 113.017 544.446 124.729C562.402 136.454 495.638 134.965 495.638 134.965C496.365 131.601 496.806 128.193 496.806 124.62C496.806 98.888 475.951 78.0203 450.235 78.0203C424.519 78.0203 403.653 98.8766 403.653 124.62C403.653 128.16 404.083 131.623 404.833 134.965H369.537H143.406H136.153C136.891 131.601 137.321 128.193 137.321 124.62C137.321 98.888 116.444 78.0203 90.7172 78.0203C65.0125 78.0203 44.1017 98.8766 44.1017 124.62C44.1017 128.16 44.5539 131.623 45.2923 134.965C45.0605 134.965 42.019 134.965 11.0665 134.965C-13.7787 110.028 10.9673 65.3475 10.9673 65.3475ZM248.276 51.7151H379.524C379.524 51.7151 321.467 17.0167 248.309 13.1012V51.7151H248.276ZM234.2 51.7482V12.9138C194.783 13.0351 151.981 22.6858 111.936 51.7482H234.2ZM450.29 82.6965C473.284 82.6965 491.89 101.293 491.89 124.288C491.89 147.262 473.284 165.891 450.29 165.891C427.319 165.891 408.701 147.262 408.701 124.288C408.691 101.303 427.308 82.6965 450.29 82.6965ZM450.29 140.314C459.119 140.314 466.295 133.189 466.295 124.332C466.295 115.487 459.119 108.34 450.29 108.34C441.472 108.34 434.285 115.476 434.285 124.332C434.252 133.123 441.428 140.314 450.29 140.314ZM89.747 82.6965C112.718 82.6965 131.325 101.293 131.325 124.288C131.325 147.262 112.718 165.891 89.747 165.891C66.7755 165.891 48.1801 147.262 48.1801 124.288C48.1476 101.303 66.7755 82.6965 89.747 82.6965ZM89.747 140.314C98.5763 140.314 105.741 133.189 105.741 124.332C105.741 115.487 98.5763 108.34 89.747 108.34C80.9071 108.34 73.7531 115.476 73.7531 124.332C73.7198 133.123 80.9071 140.314 89.747 140.314Z" fill="black"/>
</g>
<defs>
<clipPath id="clip0_1_2">
<rect width="553" height="166" fill="white" transform="matrix(-1 0 0 1 553 0)"/>
</clipPath>
</defs>
</svg>
