<svg width="680" height="204" viewBox="0 0 680 204" fill="none" xmlns="http://www.w3.org/2000/svg">
<path d="M666.514 80.3065C344.724 -88.0229 188.878 60.9512 188.878 60.9512C34.3056 58.8503 0 97.683 0 97.683C0 97.683 32.5843 138.888 10.518 153.282C-11.5617 167.69 70.536 165.861 70.536 165.861C69.6414 161.727 69.0992 157.538 69.0992 153.147C69.0992 121.525 94.7438 95.8803 126.366 95.8803C157.988 95.8803 183.646 121.511 183.646 153.147C183.646 157.498 183.117 161.754 182.195 165.861H225.596H503.66H512.579C511.671 161.727 511.142 157.538 511.142 153.147C511.142 121.525 536.814 95.8803 568.449 95.8803C600.057 95.8803 625.77 121.511 625.77 153.147C625.77 157.498 625.214 161.754 624.306 165.861C624.591 165.861 628.331 165.861 666.392 165.861C696.943 135.215 666.514 80.3065 666.514 80.3065ZM374.706 63.5535H213.316C213.316 63.5535 284.706 20.9121 374.665 16.1003V63.5535H374.706ZM392.014 63.5942V15.8699C440.484 16.019 493.115 27.8789 542.357 63.5942H392.014ZM126.298 101.627C98.0239 101.627 75.1444 124.48 75.1444 152.74C75.1444 180.973 98.0239 203.866 126.298 203.866C154.545 203.866 177.438 180.973 177.438 152.74C177.451 124.493 154.558 101.627 126.298 101.627ZM126.298 172.434C115.441 172.434 106.617 163.678 106.617 152.794C106.617 141.924 115.441 133.141 126.298 133.141C137.141 133.141 145.979 141.91 145.979 152.794C146.019 163.597 137.195 172.434 126.298 172.434ZM569.642 101.627C541.395 101.627 518.515 124.48 518.515 152.74C518.515 180.973 541.395 203.866 569.642 203.866C597.889 203.866 620.755 180.973 620.755 152.74C620.795 124.493 597.889 101.627 569.642 101.627ZM569.642 172.434C558.785 172.434 549.975 163.678 549.975 152.794C549.975 141.924 558.785 133.141 569.642 133.141C580.512 133.141 589.309 141.91 589.309 152.794C589.35 163.597 580.512 172.434 569.642 172.434Z" fill="black"/>
</svg>
