<?xml version="1.0" encoding="iso-8859-1"?>
<!-- Generator: Adobe Illustrator 18.1.1, SVG Export Plug-In . SVG Version: 6.00 Build 0)  -->
<svg version="1.1" id="Capa_1" xmlns="http://www.w3.org/2000/svg" xmlns:xlink="http://www.w3.org/1999/xlink" x="0px" y="0px"
	 viewBox="0 0 50.169 50.169" style="enable-background:new 0 0 50.169 50.169;" xml:space="preserve">
<g>
	<path d="M49.174,23.484c-23.741-12.419-35.239-1.428-35.239-1.428C2.531,21.901,0,24.766,0,24.766s2.404,3.04,0.776,4.102
		c-1.629,1.063,4.428,0.928,4.428,0.928c-0.066-0.305-0.106-0.614-0.106-0.938c0-2.333,1.892-4.225,4.225-4.225
		s4.226,1.891,4.226,4.225c0,0.321-0.039,0.635-0.107,0.938h3.202h20.515h0.658c-0.067-0.305-0.106-0.614-0.106-0.938
		c0-2.333,1.894-4.225,4.228-4.225c2.332,0,4.229,1.891,4.229,4.225c0,0.321-0.041,0.635-0.108,0.938c0.021,0,0.297,0,3.105,0
		C51.419,27.535,49.174,23.484,49.174,23.484z M27.645,22.248H15.738c0,0,5.267-3.146,11.904-3.501v3.501H27.645z M28.922,22.251
		L28.922,22.251V18.73c3.576,0.011,7.459,0.886,11.092,3.521H28.922L28.922,22.251z M9.318,25.057c-2.086,0-3.774,1.686-3.774,3.771
		c0,2.083,1.688,3.772,3.774,3.772c2.084,0,3.773-1.689,3.773-3.772C13.092,26.744,11.403,25.057,9.318,25.057z M9.318,30.281
		c-0.801,0-1.452-0.646-1.452-1.449c0-0.802,0.651-1.45,1.452-1.45c0.8,0,1.452,0.647,1.452,1.45
		C10.773,29.629,10.122,30.281,9.318,30.281z M42.027,25.057c-2.084,0-3.772,1.686-3.772,3.771c0,2.083,1.688,3.772,3.772,3.772
		s3.771-1.689,3.771-3.772C45.801,26.744,44.111,25.057,42.027,25.057z M42.027,30.281c-0.801,0-1.451-0.646-1.451-1.449
		c0-0.802,0.65-1.45,1.451-1.45c0.802,0,1.451,0.647,1.451,1.45C43.481,29.629,42.829,30.281,42.027,30.281z"/>
</g>
<g>
</g>
<g>
</g>
<g>
</g>
<g>
</g>
<g>
</g>
<g>
</g>
<g>
</g>
<g>
</g>
<g>
</g>
<g>
</g>
<g>
</g>
<g>
</g>
<g>
</g>
<g>
</g>
<g>
</g>
</svg>
